<svg width="75" height="48" viewBox="0 0 75 48" fill="none" xmlns="http://www.w3.org/2000/svg">
<path d="M29.9973 46.2277C26.573 47.2615 22.7027 47.9998 18.9807 47.9998C6.55104 47.9998 0 40.3205 0 28.7996C0 17.3538 6.55104 9.59941 18.9807 9.59941C22.7027 9.59941 26.573 10.3387 29.9973 11.3725L28.5081 19.0518C25.1589 18.018 22.9261 17.5752 20.2464 17.5752C13.8447 17.5752 11.1649 22.3014 11.1649 28.7996C11.1649 35.2988 13.8447 40.025 20.2464 40.025C22.9261 40.025 25.1589 39.5812 28.5081 38.5475L29.9973 46.2277Z" fill="#DF0024"/>
<path d="M46.099 18.3137V36.997C46.099 39.5083 47.8107 40.2466 49.4492 40.2466C50.1928 40.2466 51.7561 40.1725 52.6491 39.9511V47.409C50.4904 47.7786 46.7694 48 44.9826 48C37.242 48 35.4552 43.8648 35.4552 38.0308V5.52375L46.099 0V10.3379H52.6491V18.3137H46.099Z" fill="#DF0024"/>
<path d="M68.45 18.3137V36.997C68.45 39.5083 70.1616 40.2466 71.8001 40.2466C72.5437 40.2466 74.1071 40.1725 75 39.9511V47.409C72.8414 47.7786 69.1194 48 67.3336 48C59.592 48 57.8061 43.8648 57.8061 38.0308V5.52375L68.45 0V10.3379H75V18.3137H68.45Z" fill="#DF0024"/>
</svg>
