<svg width="125" height="64" viewBox="0 0 125 64" fill="none" xmlns="http://www.w3.org/2000/svg">
<path d="M53.077 44.5885V30.2702H55.3846C56.9231 30.2702 57.1154 32.1921 57.1154 32.1921C57.9808 30.8468 59.327 29.9819 61.0577 29.9819C63.1731 29.9819 64.4231 30.9429 65.0962 32.2882C66.1539 30.9429 67.6923 29.9819 69.6154 29.9819C72.5962 29.9819 74.3269 31.9999 74.3269 35.3633V44.5885H70.1923V35.6516C70.1923 34.114 69.0385 33.3453 67.9808 33.3453C66.8269 33.3453 65.7693 34.114 65.7693 35.8438V44.6846H61.6346V35.6516C61.6346 34.2101 60.577 33.4414 59.5193 33.4414C58.3654 33.4414 57.3077 34.2101 57.2116 35.6516V44.5885H53.077Z" fill="#000080"/>
<path d="M89.8077 37.8618C89.8077 33.4414 87.8846 29.9819 83.0769 29.9819C78.6539 29.9819 75.9616 33.3453 75.9616 37.3813C75.9616 41.8017 79.0385 44.8768 83.2693 44.8768C86.5385 44.8768 88.0769 43.8198 89.6154 41.8017L86.9231 39.8798C86.25 40.9369 85.0962 41.6095 83.5577 41.6095C81.9231 41.6095 80.4808 40.7447 80.1923 38.3423H90V37.8618H89.8077ZM80.0962 35.8438C80.4808 34.2101 81.6346 33.3453 82.9808 33.3453C84.2308 33.3453 85.4808 34.2101 85.7693 35.8438H80.0962Z" fill="#000080"/>
<path d="M101.442 42.7627C100.288 44.108 98.75 44.9729 97.1154 44.9729C93.0769 44.9729 90.9616 41.3213 90.9616 37.4774C90.9616 33.6336 93.1731 30.078 97.2116 30.078C98.75 30.078 100.288 30.6546 101.346 31.8077V23.2552H105.481V44.6846H103.365C102.212 44.5885 101.442 43.7237 101.442 42.7627ZM101.346 37.3813C101.346 35.1711 100.096 33.6336 98.1731 33.6336C96.0577 33.6336 95 35.3633 95 37.4774C95 39.5915 96.0577 41.3213 98.1731 41.3213C100 41.2252 101.346 39.3993 101.346 37.3813Z" fill="#000080"/>
<path d="M109.712 23.4474C110.962 23.4474 112.115 24.5044 112.115 25.8498C112.115 27.1951 111.058 28.2522 109.712 28.2522C108.462 28.2522 107.308 27.1951 107.308 25.8498C107.308 24.5044 108.462 23.4474 109.712 23.4474ZM107.596 44.5885V30.2702H109.327C110.673 30.2702 111.731 31.3273 111.731 32.6726V44.5885H107.596Z" fill="#000080"/>
<path d="M115.481 39.7837C116.442 40.9369 118.077 41.4173 119.423 41.4173C120.288 41.4173 120.962 41.033 120.962 40.5525C120.962 39.7837 120.192 39.4954 119.038 39.111C116.827 38.4384 114.038 37.1891 114.038 34.3062C114.038 31.5195 116.731 29.9819 119.135 29.9819C121.346 29.9819 122.788 30.7507 124.135 32.096L121.827 34.5945C121.25 33.9219 120.096 33.3453 119.231 33.3453C118.462 33.3453 117.885 33.7297 117.885 34.2101C117.885 34.8828 118.75 35.2672 120 35.6516C122.212 36.3243 125 37.6696 125 40.3603C125 43.051 122.692 44.9729 119.423 44.9729C116.827 44.9729 114.712 44.2041 113.173 42.5705L115.481 39.7837Z" fill="#000080"/>
<path d="M82.5 28.2522L83.9423 23.1591H87.5962C87.5962 23.1591 87.1154 24.5044 86.5385 25.7537C85.7693 27.2912 84.1346 28.2522 82.5 28.2522Z" fill="#000080"/>
<path d="M21.25 15.6636C34.6154 15.6636 45.3846 26.4264 45.3846 39.7838C45.3846 53.1411 34.6154 64 21.25 64V15.6636Z" fill="url(#paint0_radial_80_39)"/>
<path d="M42.1154 20.8528C42.1154 27.1952 37.9808 31.039 34.4231 32.9609C31.7308 34.4024 28.3654 37.1892 28.3654 42.4745V54.3904H21.25V12.1081C21.25 4.51647 30.3847 0.672626 35.8654 5.95792L35.9616 6.05401C39.7116 9.80176 42.1154 15.0871 42.1154 20.8528Z" fill="white"/>
<path d="M21.25 54.3904C9.51928 54.3904 0 44.8769 0 33.1532C0 21.4294 9.51923 11.9159 21.25 11.9159L21.25 54.3904Z" fill="url(#paint1_radial_80_39)"/>
<path d="M35.4808 23.7358C28.5577 29.8859 22.8846 28.3484 21.25 37.7658V0C27.0192 0 32.2116 2.30626 35.9616 6.05401C41.6347 11.7237 40.4808 19.3153 35.4808 23.7358Z" fill="url(#paint2_radial_80_39)"/>
<path d="M21.25 11.9159L21.25 26.1381C25.1923 26.1381 28.3654 22.9669 28.3654 19.027C28.3654 15.0871 25.1923 11.9159 21.25 11.9159Z" fill="white"/>
<path d="M21.25 37.7658C21.25 33.0571 17.4039 29.2132 12.6924 29.2132H3.94235V37.9579H21.3462V37.7657L21.25 37.7658Z" fill="white"/>
<defs>
<radialGradient id="paint0_radial_80_39" cx="0" cy="0" r="1" gradientUnits="userSpaceOnUse" gradientTransform="translate(-82.8456 69.5884) scale(269.775 68.9251)">
<stop stop-color="#000080"/>
<stop offset="0.1147" stop-color="#000886"/>
<stop offset="0.2911" stop-color="#001D96"/>
<stop offset="0.5072" stop-color="#0040B0"/>
<stop offset="0.7536" stop-color="#0071D5"/>
<stop offset="1" stop-color="#00A9FF"/>
</radialGradient>
<radialGradient id="paint1_radial_80_39" cx="0" cy="0" r="1" gradientUnits="userSpaceOnUse" gradientTransform="translate(133.662 48.5772) scale(248.271 63.5575)">
<stop stop-color="#000080"/>
<stop offset="0.1147" stop-color="#000886"/>
<stop offset="0.2911" stop-color="#001D96"/>
<stop offset="0.5072" stop-color="#0040B0"/>
<stop offset="0.7536" stop-color="#0071D5"/>
<stop offset="1" stop-color="#00A9FF"/>
</radialGradient>
<radialGradient id="paint2_radial_80_39" cx="0" cy="0" r="1" gradientUnits="userSpaceOnUse" gradientTransform="translate(1.24502 83.5628) scale(333.525 83.5866)">
<stop stop-color="#000080"/>
<stop offset="1" stop-color="#1FFFAE"/>
</radialGradient>
</defs>
</svg>
