<svg width="212" height="38" viewBox="0 0 212 38" fill="none" xmlns="http://www.w3.org/2000/svg">
<path d="M77.6872 34.8228H79.563L78.6292 32.402L77.6872 34.8228ZM77.8019 30.2923H79.4405L82.4299 37.9915H80.7918L80.2181 36.5123H77.0238L76.4503 38H74.812L77.8019 30.3007V30.2923ZM97.2888 31.9817V30.2923H92.5626V37.9915H97.2888V36.3021H94.2007V34.9825H96.9696V33.3013H94.2007V31.9817H97.2888ZM37.5906 37.9915H39.2289V30.2923H37.5906V37.9915ZM58.3147 30.2923H56.6683V37.9915H61.3946V36.3021H58.3066V30.2838L58.3147 30.2923ZM63.5326 37.9915H65.1709V30.2923H63.5326V37.9915ZM54.5467 31.9817V30.2923H49.8121V37.9915H54.5467V36.3021H51.4585V34.9825H54.2272V33.3013H51.4585V31.9817H54.5467ZM32.381 37.9915V34.9825H35.1497V33.3013H32.381V31.9817H35.4691V30.2923H30.7345V37.9915H32.381ZM89.0241 34.142C89.0241 32.9567 88.0822 31.9817 86.9269 31.9817H85.7724V36.3105H86.9269C88.0901 36.3105 89.0241 35.3355 89.0241 34.142ZM90.6788 34.142C90.6788 36.2601 88.9909 37.9915 86.9269 37.9915H84.1256V30.2923H86.9269C88.9996 30.2923 90.6788 32.0238 90.6788 34.142ZM46.2735 34.142C46.2735 32.9567 45.3315 31.9817 44.1765 31.9817H43.0134V36.3105H44.1765C45.3233 36.3105 46.2735 35.3355 46.2735 34.142ZM47.9282 34.142C47.9282 36.2601 46.2407 37.9915 44.1847 37.9915H41.375V30.2923H44.1847C46.2488 30.2923 47.9282 32.0238 47.9282 34.142ZM74.0257 34.142C74.0257 36.2601 72.3465 37.9915 70.2741 37.9915H67.4562L69.0945 35.8986H71.855L72.6332 35.5625L73.3294 34.1335L71.3881 32.9567L71.2079 32.2508L69.8972 31.6623L69.0945 30.2838L67.4562 31.9734V30.2838H70.4051C72.3383 30.2838 74.0175 32.0154 74.0175 34.1335M198.149 3.13471H211.665V7.45505H202.957V11.8679H210.452V15.9697H202.957V21.3154H212V25.6357H198.149V3.13471ZM183.134 13.0446C185.854 13.0446 187.401 12.3302 187.401 10.2456C187.401 8.28719 186.132 7.44664 182.561 7.44664H180.717V13.0361H183.134V13.0446ZM182.774 3.13471C187.762 3.13471 192.211 4.53 192.211 9.90941C192.211 12.8008 190.67 15.1627 187.762 16.121L193.93 25.6274H188.394L182.856 16.743H180.71V25.6274H175.901V3.13471H182.774ZM157.921 17.0203H163.819L162.91 14.5072C162.28 12.7336 161.485 10.4978 160.91 8.79149H160.854C160.281 10.4978 159.493 12.7336 158.797 14.6333L157.921 17.0287V17.0203ZM163.271 3.13471L172.158 25.6274H167.014L165.261 20.9036H156.431L154.645 25.6274H149.714L158.601 3.13471H163.271ZM140.629 2.7901C142.841 2.7901 144.988 3.31963 146.708 4.18538V9.18653C145.102 8.06861 142.898 7.2281 140.662 7.2281C136.427 7.2281 133.527 10.2708 133.527 14.339C133.527 18.4072 136.337 21.5171 140.842 21.5171C143.112 21.5171 145.225 20.7103 147.043 19.4326V24.4674C145.167 25.4929 142.808 25.9551 140.629 25.9551C133.584 25.9551 128.719 20.954 128.719 14.3979C128.719 7.84169 133.584 2.78169 140.629 2.78169M119.471 3.12631H124.28V25.6274H119.471V3.12631ZM103.474 7.44664H96.3959V3.13471H115.359V7.45505H108.282V25.6274H103.474V7.44664ZM82.9214 3.12631H87.7298V21.3069H97.3133V25.6274H82.9214V3.12631ZM58.3967 14.8349V3.13471H63.2049V14.6584C63.2049 19.3822 64.2288 21.5256 68.046 21.5256C71.552 21.5256 72.8544 19.5335 72.8544 14.692V3.13471H77.4824V14.7257C77.4824 18.113 77.0319 20.5674 75.7868 22.3661C74.2469 24.6355 71.429 25.972 67.9232 25.972C64.4172 25.972 61.5749 24.6355 60.0349 22.3072C58.8554 20.5085 58.4049 18.0541 58.4049 14.8518M38.5982 15.8184C37.5087 14.2298 36.4194 12.5907 35.3954 11.0021L35.338 11.0357C35.3708 12.6495 35.3954 14.7592 35.3954 16.6253V25.6357H30.7672V3.13471H35.3954L41.8993 12.6412L48.4032 3.13471H52.9658V25.6274H48.1574V16.6169C48.1574 14.7508 48.1903 12.6412 48.2149 11.0273L48.1574 10.9937C47.1253 12.5823 46.0441 14.2213 44.9546 15.8099L41.7765 20.4412L38.5982 15.8099V15.8184Z" fill="#656769"/>
<path d="M10.2883 27.746C17.726 27.746 23.7877 21.5176 23.7877 13.8687C23.7877 6.21993 17.8162 0 10.7552 0H0V10.4898H6.02062V4.76582H12.6147V10.4814H18.4305V17.2561H12.6147V22.9718H6.02062V17.2477H0V27.7375H10.2883V27.746Z" fill="#EFAB00"/>
</svg>
