<svg width="630" height="640" viewBox="0 0 630 640" fill="none" xmlns="http://www.w3.org/2000/svg">
<path d="M630 320C630 496.735 486.735 640 310 640H0V360H151.235C161.5 397 177.135 438.265 199.065 458.265C208.2 466.6 222.4 467.365 232.135 459.665C252.765 443.335 265.065 406.365 282.335 389.765C291.6 381.535 300.865 389.035 310 401.8C323.935 421.335 337.535 453.1 350.135 459.665C359.835 467.365 374.035 466.6 383.165 458.265C417.135 427.335 436 345.435 443.165 307.265C464.065 167.665 366.335 164.035 310 183.535C303.5 185.726 297.191 188.445 291.135 191.665C246.735 166.965 130.435 152.465 136.265 280H0V0H310C486.735 0 630 143.265 630 320Z" fill="white"/>
</svg>
