<svg id="Layer_1" data-name="Layer 1" xmlns="http://www.w3.org/2000/svg" viewBox="0 0 1280 844.17"><defs><style>.cls-1{fill:#fff;}</style></defs><title>Mista-Branco-Vertical</title><path class="cls-1" d="M47.16,737.26H0v-133H47.55q20.07,0,34.56,8A54.17,54.17,0,0,1,104.42,635q7.83,14.88,7.83,35.6t-7.83,35.73A54.24,54.24,0,0,1,82,729.27Q67.43,737.25,47.16,737.26Zm-19-24.1H46q12.48,0,21-4.45a28.48,28.48,0,0,0,12.86-13.84q4.32-9.39,4.32-24.26t-4.32-24.1A28.31,28.31,0,0,0,67,632.74q-8.51-4.43-21-4.42H28.13Z"/><path class="cls-1" d="M144.74,737.26v-133h89.65v23.19H172.87v31.7h56.91V682.3H172.87v31.77h61.78v23.19Z"/><path class="cls-1" d="M379.79,604.22v133h-24.3l-57.88-83.74h-1v83.74H268.51v-133h24.68l57.43,83.67h1.17V604.22Z"/><path class="cls-1" d="M409.61,627.41V604.22H518.88v23.19H478.15V737.26H450.34V627.41Z"/><path class="cls-1" d="M607.24,604.21H571l-45.93,133H555.2l9.88-30.33h48L623,737.26h30.15Zm-35,80.75,16.37-50.34h1L606,685Z"/><path class="cls-1" d="M680.79,737.26v-133h28.13V714.07h57v23.19Z"/><path class="cls-1" d="M823,737.26v-8.9l43.46-48.85q8.52-9.62,13.71-16.44a57,57,0,0,0,7.57-12.6,31.38,31.38,0,0,0,2.37-12,24.61,24.61,0,0,0-3.54-13.28,24.34,24.34,0,0,0-9.71-8.87,29.93,29.93,0,0,0-13.91-3.18,28.35,28.35,0,0,0-14.32,3.51,24.63,24.63,0,0,0-9.52,9.61,28.52,28.52,0,0,0-3.37,14H824.07a37.44,37.44,0,0,1,5.1-19.58,36.31,36.31,0,0,1,14-13.42,41.08,41.08,0,0,1,20.11-4.87A40.2,40.2,0,0,1,883,607.17a35.76,35.76,0,0,1,13.57,13,34.82,34.82,0,0,1,4.94,18.32,40.21,40.21,0,0,1-2.57,14.23,64.59,64.59,0,0,1-8.8,15.33q-6.24,8.44-17.28,20.66l-33,36.83v.85h65.81v10.91Z"/><path class="cls-1" d="M987.65,739.08q-14,0-23.94-8.09t-15.2-23.42q-5.29-15.33-5.29-36.83T948.51,634q5.29-15.29,15.27-23.45t23.87-8.15q13.9,0,23.87,8.15T1026.79,634q5.3,15.3,5.29,36.74t-5.29,36.83q-5.29,15.33-15.2,23.42T987.65,739.08Zm0-10.92q15.39,0,24-15t8.64-42.39q0-18.19-3.93-31.08t-11.24-19.72a24.75,24.75,0,0,0-17.51-6.82q-15.27,0-24,15.17T955,670.74q0,18.18,3.93,31t11.23,19.62A24.92,24.92,0,0,0,987.65,728.16Z"/><path class="cls-1" d="M1111.61,739.08q-14,0-23.94-8.09t-15.2-23.42q-5.29-15.33-5.29-36.83t5.29-36.74q5.29-15.29,15.27-23.45t23.87-8.15q13.91,0,23.87,8.15T1150.75,634q5.3,15.3,5.29,36.74t-5.29,36.83q-5.3,15.33-15.2,23.42T1111.61,739.08Zm0-10.92q15.39,0,24-15t8.64-42.39q0-18.19-3.93-31.08t-11.23-19.72a24.77,24.77,0,0,0-17.51-6.82q-15.27,0-24,15.17t-8.71,42.45q0,18.18,3.93,31t11.24,19.62A24.91,24.91,0,0,0,1111.61,728.16Z"/><path class="cls-1" d="M1235.57,739.08q-14,0-23.94-8.09t-15.2-23.42q-5.29-15.33-5.3-36.83t5.3-36.74q5.29-15.29,15.26-23.45t23.88-8.15q13.89,0,23.87,8.15T1274.71,634q5.3,15.3,5.29,36.74t-5.29,36.83q-5.3,15.33-15.21,23.42T1235.57,739.08Zm0-10.92q15.39,0,24-15t8.64-42.39q0-18.19-3.93-31.08t-11.24-19.72a24.73,24.73,0,0,0-17.5-6.82q-15.27,0-24,15.17t-8.71,42.45q0,18.18,3.93,31t11.24,19.62A24.91,24.91,0,0,0,1235.57,728.16Z"/><path class="cls-1" d="M221,810.45h4.81l11.31,27.61h.38l11.31-27.61h4.8v33.26h-3.76V818.44h-.33l-10.39,25.27h-3.64l-10.39-25.27h-.33v25.27H221Z"/><path class="cls-1" d="M285.1,843.71V810.45h20.08V814H289.13v11.24h15v3.58h-15v11.3h16.31v3.57Z"/><path class="cls-1" d="M346.13,843.71H335.87V810.45h10.72a16.37,16.37,0,0,1,8.28,2,13.25,13.25,0,0,1,5.28,5.7,22.49,22.49,0,0,1,0,17.82,13.15,13.15,0,0,1-5.39,5.75A17.29,17.29,0,0,1,346.13,843.71Zm-6.24-3.57h6a13.37,13.37,0,0,0,6.84-1.59,9.79,9.79,0,0,0,4-4.53,19.09,19.09,0,0,0,0-13.95,9.83,9.83,0,0,0-3.93-4.48,12.55,12.55,0,0,0-6.51-1.57h-6.44Z"/><path class="cls-1" d="M396.18,810.45v33.26h-4V810.45Z"/><path class="cls-1" d="M454.41,820.85h-4a8.55,8.55,0,0,0-1.25-3.06,8.65,8.65,0,0,0-2.14-2.21,9.28,9.28,0,0,0-2.79-1.36,11.16,11.16,0,0,0-3.18-.45,10.05,10.05,0,0,0-5.46,1.52,10.59,10.59,0,0,0-3.89,4.5,19.3,19.3,0,0,0,0,14.58,10.53,10.53,0,0,0,3.89,4.5A10.06,10.06,0,0,0,441,840.4a10.82,10.82,0,0,0,3.18-.46,9.25,9.25,0,0,0,2.79-1.35,8.42,8.42,0,0,0,2.14-2.23,8.52,8.52,0,0,0,1.25-3h4a13.33,13.33,0,0,1-1.65,4.56,12.62,12.62,0,0,1-3,3.42,13,13,0,0,1-4,2.14,15.17,15.17,0,0,1-4.73.73,14,14,0,0,1-7.57-2.08,14.32,14.32,0,0,1-5.21-5.91,22.72,22.72,0,0,1,0-18.19,14.2,14.2,0,0,1,5.21-5.91A13.91,13.91,0,0,1,441,810a14.88,14.88,0,0,1,4.73.73,13,13,0,0,1,4,2.13,12.73,12.73,0,0,1,3,3.41A13.36,13.36,0,0,1,454.41,820.85Z"/><path class="cls-1" d="M488.35,810.45v33.26h-4V810.45Z"/><path class="cls-1" d="M546.19,810.45v33.26H542.3L524.17,817.6h-.32v26.11h-4V810.45h3.9l18.19,26.18h.32V810.45Z"/><path class="cls-1" d="M591.18,810.45H587L574.8,843.71H579l3.34-9.42h13.45l3.34,9.42h4.22Zm-7.54,20.27,5.33-15h.26l5.32,15Z"/><path class="cls-1" d="M678.54,843.71H668.28V810.45H679a16.38,16.38,0,0,1,8.29,2,13.17,13.17,0,0,1,5.27,5.7,19.76,19.76,0,0,1,1.84,8.88,20.06,20.06,0,0,1-1.85,8.94,13.21,13.21,0,0,1-5.39,5.75A17.29,17.29,0,0,1,678.54,843.71Zm-6.24-3.57h6a13.37,13.37,0,0,0,6.84-1.59,9.85,9.85,0,0,0,4-4.53,19.09,19.09,0,0,0,0-13.95,9.83,9.83,0,0,0-3.93-4.48,12.57,12.57,0,0,0-6.52-1.57H672.3Z"/><path class="cls-1" d="M724.56,843.71V810.45h20.07V814h-16v11.24h15v3.58h-15v11.3h16.3v3.57Z"/><path class="cls-1" d="M801.7,810.45v33.26h-3.9L779.68,817.6h-.33v26.11h-4V810.45h3.9l18.19,26.18h.33V810.45Z"/><path class="cls-1" d="M831.35,814v-3.57h24.94V814H845.84v29.69h-4V814Z"/><path class="cls-1" d="M895.69,799.54l-4,7.54h3.37l5.07-7.54Z"/><path class="cls-1" d="M895.56,810.45H891.4l-12.21,33.26h4.22l3.35-9.42h13.45l3.34,9.42h4.23ZM888,830.72l5.33-15h.26l5.33,15Z"/><path class="cls-1" d="M952.71,830a10,10,0,0,0,1.33-.57,8.45,8.45,0,0,0,3.68-3.56,11.91,11.91,0,0,0,0-10.46,8.56,8.56,0,0,0-3.7-3.64,13.65,13.65,0,0,0-6.39-1.32H936.39v33.26h4v-13h7.28l.84,0,7,13h4.67Zm-12.3-16h7.08a9.84,9.84,0,0,1,4.34.82,5.1,5.1,0,0,1,2.38,2.32,7.67,7.67,0,0,1,.75,3.49,7.52,7.52,0,0,1-.74,3.44,4.88,4.88,0,0,1-2.37,2.21,10,10,0,0,1-4.3.78h-7.14Z"/><path class="cls-1" d="M993.06,810.45v33.26h-4V810.45Z"/><path class="cls-1" d="M1038,810.45h-4.16l-12.22,33.26h4.23l3.35-9.42h13.44l3.35,9.42h4.22Zm-7.54,20.27,5.33-15h.26l5.33,15Z"/><path class="cls-1" d="M929.09,243.9c0,134.71-109.2,243.91-243.9,243.91H448.9V274.39H564.18c7.82,28.2,19.74,59.66,36.45,74.9a19.65,19.65,0,0,0,25.21,1.07c15.72-12.45,25.1-40.63,38.26-53.28,7.06-6.27,14.13-.56,21.09,9.17,10.62,14.89,21,39.1,30.59,44.11A19.59,19.59,0,0,0,741,349.29c25.89-23.58,40.27-86,45.74-115.09,15.93-106.4-58.57-109.17-101.5-94.31a94.45,94.45,0,0,0-14.38,6.2c-33.84-18.83-122.49-29.88-118,67.33H448.9V0H685.19C819.89,0,929.09,109.2,929.09,243.9Z"/></svg>