<svg id="Layer_1" data-name="Layer 1" xmlns="http://www.w3.org/2000/svg" viewBox="0 0 1280 335.12"><defs><style>.cls-1{fill:#fff;}</style></defs><title>Mista-Branco-Horizontal</title><path class="cls-1" d="M433.06,190.16h-32.4V98.76h32.67q13.79,0,23.74,5.47a37.3,37.3,0,0,1,15.33,15.69q5.37,10.21,5.38,24.45t-5.38,24.55A37.32,37.32,0,0,1,457,184.67Q447,190.16,433.06,190.16ZM420,173.6h12.28a31,31,0,0,0,14.43-3,19.58,19.58,0,0,0,8.84-9.51q3-6.45,3-16.67t-3-16.55a19.5,19.5,0,0,0-8.82-9.47q-5.83-3-14.41-3H420Z"/><path class="cls-1" d="M500.1,190.16V98.76h61.58V114.7H519.42v21.77h39.09V152.4H519.42v21.83h42.44v15.93Z"/><path class="cls-1" d="M661.57,98.76v91.4H644.88l-39.77-57.53h-.67v57.53H585.12V98.76h17l39.45,57.48h.8V98.76Z"/><path class="cls-1" d="M682.06,114.7V98.76h75.06V114.7h-28v75.46H710V114.7Z"/><path class="cls-1" d="M817.83,98.76H792.92l-31.55,91.4h20.7l6.79-20.84h33l6.76,20.84h20.71Zm-24.07,55.48L805,119.65h.71L817,154.24Z"/><path class="cls-1" d="M868.35,190.16V98.76h19.32v75.47h39.18v15.93Z"/><path class="cls-1" d="M966,190.16V184l29.86-33.55q5.85-6.62,9.41-11.3a38.86,38.86,0,0,0,5.2-8.65,21.49,21.49,0,0,0,1.63-8.26,17,17,0,0,0-2.43-9.13,16.71,16.71,0,0,0-6.67-6.09,20.63,20.63,0,0,0-9.55-2.18,19.45,19.45,0,0,0-9.84,2.41,16.93,16.93,0,0,0-6.54,6.6,19.56,19.56,0,0,0-2.32,9.64h-8a25.67,25.67,0,0,1,3.51-13.45,24.86,24.86,0,0,1,9.59-9.22,28.2,28.2,0,0,1,13.81-3.35,27.67,27.67,0,0,1,13.57,3.28,24.57,24.57,0,0,1,9.32,8.91,23.81,23.81,0,0,1,3.4,12.58,27.64,27.64,0,0,1-1.77,9.77,44.39,44.39,0,0,1-6,10.54q-4.29,5.79-11.87,14.19l-22.67,25.3v.58h45.2v7.5Z"/><path class="cls-1" d="M1079.16,191.41a25.11,25.11,0,0,1-16.44-5.56q-6.81-5.55-10.45-16.09t-3.63-25.3q0-14.73,3.63-25.24t10.49-16.11a26.81,26.81,0,0,1,32.8,0q6.86,5.61,10.49,16.11t3.64,25.24q0,14.78-3.64,25.3t-10.44,16.09A25.15,25.15,0,0,1,1079.16,191.41Zm0-7.5q10.58,0,16.51-10.33t5.94-29.12a73.81,73.81,0,0,0-2.7-21.35q-2.7-8.86-7.72-13.55a17,17,0,0,0-12-4.68q-10.48,0-16.47,10.42t-6,29.16a73.61,73.61,0,0,0,2.7,21.33q2.7,8.84,7.72,13.48A17.13,17.13,0,0,0,1079.16,183.91Z"/><path class="cls-1" d="M1164.32,191.41a25.15,25.15,0,0,1-16.45-5.56q-6.8-5.55-10.44-16.09t-3.64-25.3q0-14.73,3.64-25.24t10.49-16.11a26.81,26.81,0,0,1,32.8,0q6.84,5.61,10.49,16.11t3.63,25.24q0,14.78-3.63,25.3t-10.45,16.09A25.14,25.14,0,0,1,1164.32,191.41Zm0-7.5q10.58,0,16.51-10.33t5.93-29.12a74.18,74.18,0,0,0-2.69-21.35q-2.71-8.86-7.73-13.55a17,17,0,0,0-12-4.68q-10.48,0-16.47,10.42t-6,29.16a73.61,73.61,0,0,0,2.7,21.33q2.7,8.84,7.72,13.48A17.13,17.13,0,0,0,1164.32,183.91Z"/><path class="cls-1" d="M1249.47,191.41a25.14,25.14,0,0,1-16.44-5.56q-6.81-5.55-10.44-16.09t-3.64-25.3q0-14.73,3.64-25.24t10.49-16.11a26.81,26.81,0,0,1,32.8,0q6.84,5.61,10.48,16.11t3.64,25.24q0,14.78-3.64,25.3t-10.44,16.09A25.15,25.15,0,0,1,1249.47,191.41Zm0-7.5q10.59,0,16.52-10.33t5.93-29.12a73.81,73.81,0,0,0-2.7-21.35q-2.7-8.86-7.72-13.55a17,17,0,0,0-12-4.68q-10.48,0-16.46,10.42t-6,29.16a73.61,73.61,0,0,0,2.7,21.33q2.7,8.84,7.72,13.48A17.11,17.11,0,0,0,1249.47,183.91Z"/><path class="cls-1" d="M400.37,240.45h3.3l7.76,19h.27l7.77-19h3.3V263.3h-2.59V245.94H420l-7.14,17.36h-2.5l-7.14-17.36H403V263.3h-2.59Z"/><path class="cls-1" d="M444.39,263.3V240.45h13.79v2.45h-11v7.72h10.31v2.46H447.15v7.76h11.21v2.46Z"/><path class="cls-1" d="M486.31,263.3h-7.05V240.45h7.37a11.23,11.23,0,0,1,5.69,1.36,9.05,9.05,0,0,1,3.62,3.92,15.44,15.44,0,0,1,0,12.24,9.07,9.07,0,0,1-3.7,3.95A11.86,11.86,0,0,1,486.31,263.3ZM482,260.84h4.1a9.16,9.16,0,0,0,4.7-1.09,6.76,6.76,0,0,0,2.78-3.12,13.1,13.1,0,0,0,0-9.57,6.66,6.66,0,0,0-2.7-3.08,8.55,8.55,0,0,0-4.47-1.08H482Z"/><path class="cls-1" d="M520.69,240.45V263.3h-2.76V240.45Z"/><path class="cls-1" d="M560.7,247.59h-2.77a5.63,5.63,0,0,0-.85-2.1,5.91,5.91,0,0,0-1.47-1.52,6.11,6.11,0,0,0-1.92-.93,7.51,7.51,0,0,0-2.18-.32,6.94,6.94,0,0,0-3.76,1.05,7.25,7.25,0,0,0-2.66,3.09,13.17,13.17,0,0,0,0,10,7.25,7.25,0,0,0,2.66,3.09,6.94,6.94,0,0,0,3.76,1,7.51,7.51,0,0,0,2.18-.31,6.57,6.57,0,0,0,1.92-.93,6.11,6.11,0,0,0,1.47-1.53,5.77,5.77,0,0,0,.85-2.1h2.77a9.26,9.26,0,0,1-1.14,3.14,8.44,8.44,0,0,1-2,2.35,9.1,9.1,0,0,1-2.75,1.47,10.48,10.48,0,0,1-3.25.5,9.6,9.6,0,0,1-5.2-1.43,9.79,9.79,0,0,1-3.58-4.06,15.56,15.56,0,0,1,0-12.5,9.79,9.79,0,0,1,3.58-4.06,9.6,9.6,0,0,1,5.2-1.43,10.2,10.2,0,0,1,3.25.51,8.86,8.86,0,0,1,2.75,1.46,8.58,8.58,0,0,1,2,2.35A9.1,9.1,0,0,1,560.7,247.59Z"/><path class="cls-1" d="M584,240.45V263.3h-2.77V240.45Z"/><path class="cls-1" d="M623.75,240.45V263.3h-2.68l-12.45-18h-.22v18h-2.77V240.45h2.68l12.5,18H621v-18Z"/><path class="cls-1" d="M654.65,240.45H651.8l-8.4,22.84h2.91l2.3-6.47h9.23l2.3,6.47h2.91Zm-5.17,13.92,3.66-10.31h.18L657,254.37Z"/><path class="cls-1" d="M714.67,263.3h-7V240.45H715a11.17,11.17,0,0,1,5.69,1.36,9,9,0,0,1,3.63,3.92,15.44,15.44,0,0,1,0,12.24,9,9,0,0,1-3.71,3.95A11.8,11.8,0,0,1,714.67,263.3Zm-4.28-2.46h4.1a9.16,9.16,0,0,0,4.7-1.09,6.76,6.76,0,0,0,2.78-3.12,13.1,13.1,0,0,0,0-9.57,6.66,6.66,0,0,0-2.7-3.08,8.55,8.55,0,0,0-4.47-1.08h-4.42Z"/><path class="cls-1" d="M746.29,263.3V240.45h13.79v2.45h-11v7.72h10.31v2.46H749.05v7.76h11.21v2.46Z"/><path class="cls-1" d="M799.28,240.45V263.3H796.6l-12.45-18h-.22v18h-2.77V240.45h2.68l12.49,18h.23v-18Z"/><path class="cls-1" d="M819.65,242.9v-2.45h17.14v2.45H829.6v20.4h-2.77V242.9Z"/><path class="cls-1" d="M863.85,232.94l-2.73,5.19h2.32l3.49-5.19Z"/><path class="cls-1" d="M863.76,240.45H860.9l-8.39,22.84h2.9l2.3-6.47H867l2.3,6.47h2.9Zm-5.18,13.92,3.66-10.31h.18l3.66,10.31Z"/><path class="cls-1" d="M903,253.87a6.36,6.36,0,0,0,.92-.39,5.91,5.91,0,0,0,2.53-2.44,7.69,7.69,0,0,0,.82-3.59,7.79,7.79,0,0,0-.82-3.6,6,6,0,0,0-2.55-2.49,9.33,9.33,0,0,0-4.4-.91h-7.71v22.84h2.76v-8.92h5.59l4.81,8.93h3.21Zm-8.45-11h4.87a6.79,6.79,0,0,1,3,.56,3.61,3.61,0,0,1,1.64,1.59,5.47,5.47,0,0,1,.5,2.4,5,5,0,0,1-.5,2.36,3.36,3.36,0,0,1-1.63,1.52,6.67,6.67,0,0,1-2.95.54h-4.91Z"/><path class="cls-1" d="M930.74,240.45V263.3H928V240.45Z"/><path class="cls-1" d="M961.64,240.45h-2.85l-8.4,22.84h2.91l2.3-6.47h9.23l2.3,6.47H970Zm-5.17,13.92,3.65-10.31h.18L964,254.37Z"/><path class="cls-1" d="M329.88,167.56A167.56,167.56,0,0,1,162.32,335.12H0V188.5H79.19c5.37,19.38,13.56,41,25,51.46a13.49,13.49,0,0,0,17.31.73c10.8-8.55,17.24-27.91,26.29-36.6,4.85-4.31,9.7-.38,14.48,6.3,7.3,10.23,14.42,26.86,21,30.3a13.46,13.46,0,0,0,17.29-.73c17.79-16.2,27.67-59.08,31.42-79.07,10.94-73.1-40.23-75-69.73-64.79a66.12,66.12,0,0,0-9.88,4.26C129.19,87.43,68.3,79.83,71.35,146.61H0V0H162.32A167.56,167.56,0,0,1,329.88,167.56Z"/></svg>